<mxfile host="Electron" agent="Mozilla/5.0 (Macintosh; Intel Mac OS X 10_15_7) AppleWebKit/537.36 (KHTML, like Gecko) draw.io/26.0.4 Chrome/128.0.6613.186 Electron/32.2.5 Safari/537.36" version="26.0.4">
  <diagram name="Page-1" id="JgsH1OPGVkEB44urUVAO">
    <mxGraphModel dx="1114" dy="1213" grid="1" gridSize="10" guides="1" tooltips="1" connect="1" arrows="1" fold="1" page="1" pageScale="1" pageWidth="850" pageHeight="1100" math="0" shadow="0">
      <root>
        <mxCell id="0" />
        <mxCell id="1" parent="0" />
        <mxCell id="r4IsjiTtZqArY9GASYge-15" value="" style="html=1;shadow=0;dashed=0;align=center;verticalAlign=middle;shape=mxgraph.arrows2.triadArrow;dy=10;dx=20;arrowHead=40;direction=west;" vertex="1" parent="1">
          <mxGeometry x="265" y="460" width="100" height="70" as="geometry" />
        </mxCell>
        <mxCell id="r4IsjiTtZqArY9GASYge-1" value="" style="shape=mxgraph.cisco.servers.file_server;sketch=0;html=1;pointerEvents=1;dashed=0;fillColor=#036897;strokeColor=#ffffff;strokeWidth=2;verticalLabelPosition=bottom;verticalAlign=top;align=center;outlineConnect=0;" vertex="1" parent="1">
          <mxGeometry x="420" y="450" width="43" height="58" as="geometry" />
        </mxCell>
        <mxCell id="r4IsjiTtZqArY9GASYge-2" value="" style="shape=mxgraph.cisco.misc.hp_mini;sketch=0;html=1;pointerEvents=1;dashed=0;fillColor=#036897;strokeColor=#ffffff;strokeWidth=2;verticalLabelPosition=bottom;verticalAlign=top;align=center;outlineConnect=0;" vertex="1" parent="1">
          <mxGeometry x="290" y="620" width="50" height="54" as="geometry" />
        </mxCell>
        <mxCell id="r4IsjiTtZqArY9GASYge-3" value="" style="shape=mxgraph.cisco.computers_and_peripherals.laptop;sketch=0;html=1;pointerEvents=1;dashed=0;fillColor=#036897;strokeColor=#ffffff;strokeWidth=2;verticalLabelPosition=bottom;verticalAlign=top;align=center;outlineConnect=0;" vertex="1" parent="1">
          <mxGeometry x="140" y="449" width="90" height="61" as="geometry" />
        </mxCell>
        <mxCell id="r4IsjiTtZqArY9GASYge-6" value="" style="endArrow=classic;html=1;rounded=0;" edge="1" parent="1" source="r4IsjiTtZqArY9GASYge-3" target="r4IsjiTtZqArY9GASYge-1">
          <mxGeometry width="50" height="50" relative="1" as="geometry">
            <mxPoint x="400" y="640" as="sourcePoint" />
            <mxPoint x="450" y="590" as="targetPoint" />
          </mxGeometry>
        </mxCell>
        <mxCell id="r4IsjiTtZqArY9GASYge-8" value="Agent Wazuh et&lt;div&gt;IDS Suricata&lt;/div&gt;" style="text;html=1;align=center;verticalAlign=middle;whiteSpace=wrap;rounded=0;" vertex="1" parent="1">
          <mxGeometry x="320" y="560" width="130" height="30" as="geometry" />
        </mxCell>
        <mxCell id="r4IsjiTtZqArY9GASYge-9" value="VM d&#39;attaque" style="text;html=1;align=center;verticalAlign=middle;whiteSpace=wrap;rounded=0;" vertex="1" parent="1">
          <mxGeometry x="135" y="520" width="100" height="30" as="geometry" />
        </mxCell>
        <mxCell id="r4IsjiTtZqArY9GASYge-10" value="Serveur cible" style="text;html=1;align=center;verticalAlign=middle;whiteSpace=wrap;rounded=0;" vertex="1" parent="1">
          <mxGeometry x="382" y="515" width="120" height="30" as="geometry" />
        </mxCell>
        <mxCell id="r4IsjiTtZqArY9GASYge-11" value="Serveur Wazuh" style="text;html=1;align=center;verticalAlign=middle;whiteSpace=wrap;rounded=0;" vertex="1" parent="1">
          <mxGeometry x="265" y="690" width="100" height="30" as="geometry" />
        </mxCell>
        <mxCell id="r4IsjiTtZqArY9GASYge-12" value="" style="shape=mxgraph.cisco.misc.hp_mini;sketch=0;html=1;pointerEvents=1;dashed=0;fillColor=#036897;strokeColor=#ffffff;strokeWidth=2;verticalLabelPosition=bottom;verticalAlign=top;align=center;outlineConnect=0;direction=south;" vertex="1" parent="1">
          <mxGeometry x="293" y="530" width="44" height="40" as="geometry" />
        </mxCell>
        <mxCell id="r4IsjiTtZqArY9GASYge-13" value="" style="endArrow=classic;startArrow=classic;html=1;rounded=0;exitX=0.5;exitY=0;exitDx=0;exitDy=0;exitPerimeter=0;" edge="1" parent="1" source="r4IsjiTtZqArY9GASYge-2" target="r4IsjiTtZqArY9GASYge-12">
          <mxGeometry width="50" height="50" relative="1" as="geometry">
            <mxPoint x="400" y="630" as="sourcePoint" />
            <mxPoint x="450" y="580" as="targetPoint" />
          </mxGeometry>
        </mxCell>
        <mxCell id="r4IsjiTtZqArY9GASYge-14" value="Mode promiscous" style="text;html=1;align=center;verticalAlign=middle;whiteSpace=wrap;rounded=0;" vertex="1" parent="1">
          <mxGeometry x="260" y="430" width="110" height="30" as="geometry" />
        </mxCell>
      </root>
    </mxGraphModel>
  </diagram>
</mxfile>
